# xmcd
# 
# Track frame offsets:
#     150
#     26251
#     67482
#     95292
#     132005
#     166430
# 
# Disc length: 2601
# 
# Revision: 0
# Processed by: cddbd v1.5.2PL0 Copyright (c) Steve Scherf et al.
# Submitted via: fre:ac v1.0.17
# 
DISCID=4a0a2706
DTITLE=Who Dies In Siberian Slush - We Have Been Dead Since Long Ago
DYEAR=2012
DGENRE=Doom Death Metal
TTITLE0=The Day of Marvin Heemeyer
TTITLE1=Refinement of the Mould
TTITLE2=In a Jar
TTITLE3=The Spring
TTITLE4=Funeral March N14
TTITLE5=Of Immortality
EXTD=
EXTT0=
EXTT1=
EXTT2=
EXTT3=
EXTT4=
EXTT5=
PLAYORDER=
